<?xml version="1.0" encoding="UTF-8" standalone="no"?>
<!DOCTYPE svg PUBLIC "-//W3C//DTD SVG 1.1//EN"
 "http://www.w3.org/Graphics/SVG/1.1/DTD/svg11.dtd">
<!-- Generated by graphviz version 2.40.1 (20161225.0304)
 -->
<!-- Title: decision_tree_1 Pages: 1 -->
<svg width="681pt" height="260pt"
 viewBox="0.00 0.00 681.19 260.00" xmlns="http://www.w3.org/2000/svg" xmlns:xlink="http://www.w3.org/1999/xlink">
<g id="graph0" class="graph" transform="scale(1 1) rotate(0) translate(4 256)">
<title>decision_tree_1</title>
<polygon fill="#ffffff" stroke="transparent" points="-4,4 -4,-256 677.1938,-256 677.1938,4 -4,4"/>
<!-- 140662194758656 -->
<g id="node1" class="node">
<title>140662194758656</title>
<ellipse fill="none" stroke="#000000" cx="334.0969" cy="-234" rx="27" ry="18"/>
<text text-anchor="middle" x="334.0969" y="-230.3" font-family="Times,serif" font-size="14.00" fill="#000000">1</text>
</g>
<!-- 140663338135168 -->
<g id="node2" class="node">
<title>140663338135168</title>
<ellipse fill="none" stroke="#000000" cx="247.0969" cy="-162" rx="27" ry="18"/>
<text text-anchor="middle" x="247.0969" y="-158.3" font-family="Times,serif" font-size="14.00" fill="#000000">2</text>
</g>
<!-- 140662194758656&#45;&#45;140663338135168 -->
<g id="edge1" class="edge">
<title>140662194758656&#45;&#45;140663338135168</title>
<path fill="none" stroke="#000000" stroke-dasharray="5,2" d="M316.9085,-219.7751C301.6562,-207.1525 279.4911,-188.809 264.2496,-176.1953"/>
</g>
<!-- 140663338132816 -->
<g id="node9" class="node">
<title>140663338132816</title>
<ellipse fill="none" stroke="#000000" cx="421.0969" cy="-162" rx="27" ry="18"/>
<text text-anchor="middle" x="421.0969" y="-158.3" font-family="Times,serif" font-size="14.00" fill="#000000">2</text>
</g>
<!-- 140662194758656&#45;&#45;140663338132816 -->
<g id="edge8" class="edge">
<title>140662194758656&#45;&#45;140663338132816</title>
<path fill="none" stroke="#000000" d="M351.2853,-219.7751C366.5376,-207.1525 388.7027,-188.809 403.9442,-176.1953"/>
</g>
<!-- 140663338132288 -->
<g id="node3" class="node">
<title>140663338132288</title>
<ellipse fill="none" stroke="#000000" cx="121.0969" cy="-90" rx="27" ry="18"/>
<text text-anchor="middle" x="121.0969" y="-86.3" font-family="Times,serif" font-size="14.00" fill="#000000">3</text>
</g>
<!-- 140663338135168&#45;&#45;140663338132288 -->
<g id="edge2" class="edge">
<title>140663338135168&#45;&#45;140663338132288</title>
<path fill="none" stroke="#000000" stroke-dasharray="5,2" d="M226.5724,-150.2717C203.1419,-136.8829 165.0394,-115.11 141.6126,-101.7233"/>
</g>
<!-- 140663338132624 -->
<g id="node6" class="node">
<title>140663338132624</title>
<ellipse fill="none" stroke="#000000" cx="247.0969" cy="-90" rx="27" ry="18"/>
<text text-anchor="middle" x="247.0969" y="-86.3" font-family="Times,serif" font-size="14.00" fill="#000000">3</text>
</g>
<!-- 140663338135168&#45;&#45;140663338132624 -->
<g id="edge5" class="edge">
<title>140663338135168&#45;&#45;140663338132624</title>
<path fill="none" stroke="#000000" d="M247.0969,-143.8314C247.0969,-133 247.0969,-119.2876 247.0969,-108.4133"/>
</g>
<!-- 140663338132960 -->
<g id="node4" class="node">
<title>140663338132960</title>
<ellipse fill="none" stroke="#000000" cx="35.0969" cy="-18" rx="35.194" ry="18"/>
<text text-anchor="middle" x="35.0969" y="-14.3" font-family="Times,serif" font-size="14.00" fill="#000000">False</text>
</g>
<!-- 140663338132288&#45;&#45;140663338132960 -->
<g id="edge3" class="edge">
<title>140663338132288&#45;&#45;140663338132960</title>
<path fill="none" stroke="#000000" stroke-dasharray="5,2" d="M104.1061,-75.7751C89.5186,-63.5624 68.5343,-45.9941 53.5411,-33.4417"/>
</g>
<!-- 140663338134688 -->
<g id="node5" class="node">
<title>140663338134688</title>
<ellipse fill="none" stroke="#000000" cx="121.0969" cy="-18" rx="32.4942" ry="18"/>
<text text-anchor="middle" x="121.0969" y="-14.3" font-family="Times,serif" font-size="14.00" fill="#000000">True</text>
</g>
<!-- 140663338132288&#45;&#45;140663338134688 -->
<g id="edge4" class="edge">
<title>140663338132288&#45;&#45;140663338134688</title>
<path fill="none" stroke="#000000" d="M121.0969,-71.8314C121.0969,-61 121.0969,-47.2876 121.0969,-36.4133"/>
</g>
<!-- 140663338131520 -->
<g id="node7" class="node">
<title>140663338131520</title>
<ellipse fill="none" stroke="#000000" cx="204.0969" cy="-18" rx="32.4942" ry="18"/>
<text text-anchor="middle" x="204.0969" y="-14.3" font-family="Times,serif" font-size="14.00" fill="#000000">True</text>
</g>
<!-- 140663338132624&#45;&#45;140663338131520 -->
<g id="edge6" class="edge">
<title>140663338132624&#45;&#45;140663338131520</title>
<path fill="none" stroke="#000000" stroke-dasharray="5,2" d="M236.9065,-72.937C230.1513,-61.626 221.3137,-46.8282 214.5128,-35.4407"/>
</g>
<!-- 140663338135408 -->
<g id="node8" class="node">
<title>140663338135408</title>
<ellipse fill="none" stroke="#000000" cx="290.0969" cy="-18" rx="35.194" ry="18"/>
<text text-anchor="middle" x="290.0969" y="-14.3" font-family="Times,serif" font-size="14.00" fill="#000000">False</text>
</g>
<!-- 140663338132624&#45;&#45;140663338135408 -->
<g id="edge7" class="edge">
<title>140663338132624&#45;&#45;140663338135408</title>
<path fill="none" stroke="#000000" d="M257.2873,-72.937C264.0425,-61.626 272.88,-46.8282 279.6809,-35.4407"/>
</g>
<!-- 140663199424672 -->
<g id="node10" class="node">
<title>140663199424672</title>
<ellipse fill="none" stroke="#000000" cx="421.0969" cy="-90" rx="27" ry="18"/>
<text text-anchor="middle" x="421.0969" y="-86.3" font-family="Times,serif" font-size="14.00" fill="#000000">3</text>
</g>
<!-- 140663338132816&#45;&#45;140663199424672 -->
<g id="edge9" class="edge">
<title>140663338132816&#45;&#45;140663199424672</title>
<path fill="none" stroke="#000000" stroke-dasharray="5,2" d="M421.0969,-143.8314C421.0969,-133 421.0969,-119.2876 421.0969,-108.4133"/>
</g>
<!-- 140663199425152 -->
<g id="node13" class="node">
<title>140663199425152</title>
<ellipse fill="none" stroke="#000000" cx="550.0969" cy="-90" rx="27" ry="18"/>
<text text-anchor="middle" x="550.0969" y="-86.3" font-family="Times,serif" font-size="14.00" fill="#000000">3</text>
</g>
<!-- 140663338132816&#45;&#45;140663199425152 -->
<g id="edge12" class="edge">
<title>140663338132816&#45;&#45;140663199425152</title>
<path fill="none" stroke="#000000" d="M441.823,-150.432C465.7533,-137.0755 504.9048,-115.2235 528.9937,-101.7785"/>
</g>
<!-- 140663338132384 -->
<g id="node11" class="node">
<title>140663338132384</title>
<ellipse fill="none" stroke="#000000" cx="378.0969" cy="-18" rx="35.194" ry="18"/>
<text text-anchor="middle" x="378.0969" y="-14.3" font-family="Times,serif" font-size="14.00" fill="#000000">False</text>
</g>
<!-- 140663199424672&#45;&#45;140663338132384 -->
<g id="edge10" class="edge">
<title>140663199424672&#45;&#45;140663338132384</title>
<path fill="none" stroke="#000000" stroke-dasharray="5,2" d="M410.9065,-72.937C404.1513,-61.626 395.3137,-46.8282 388.5128,-35.4407"/>
</g>
<!-- 140663338135504 -->
<g id="node12" class="node">
<title>140663338135504</title>
<ellipse fill="none" stroke="#000000" cx="464.0969" cy="-18" rx="32.4942" ry="18"/>
<text text-anchor="middle" x="464.0969" y="-14.3" font-family="Times,serif" font-size="14.00" fill="#000000">True</text>
</g>
<!-- 140663199424672&#45;&#45;140663338135504 -->
<g id="edge11" class="edge">
<title>140663199424672&#45;&#45;140663338135504</title>
<path fill="none" stroke="#000000" d="M431.2873,-72.937C438.0425,-61.626 446.88,-46.8282 453.6809,-35.4407"/>
</g>
<!-- 140663338134256 -->
<g id="node14" class="node">
<title>140663338134256</title>
<ellipse fill="none" stroke="#000000" cx="550.0969" cy="-18" rx="35.194" ry="18"/>
<text text-anchor="middle" x="550.0969" y="-14.3" font-family="Times,serif" font-size="14.00" fill="#000000">False</text>
</g>
<!-- 140663199425152&#45;&#45;140663338134256 -->
<g id="edge13" class="edge">
<title>140663199425152&#45;&#45;140663338134256</title>
<path fill="none" stroke="#000000" stroke-dasharray="5,2" d="M550.0969,-71.8314C550.0969,-61 550.0969,-47.2876 550.0969,-36.4133"/>
</g>
<!-- 140663199424960 -->
<g id="node15" class="node">
<title>140663199424960</title>
<ellipse fill="none" stroke="#000000" cx="638.0969" cy="-18" rx="35.194" ry="18"/>
<text text-anchor="middle" x="638.0969" y="-14.3" font-family="Times,serif" font-size="14.00" fill="#000000">False</text>
</g>
<!-- 140663199425152&#45;&#45;140663199424960 -->
<g id="edge14" class="edge">
<title>140663199425152&#45;&#45;140663199424960</title>
<path fill="none" stroke="#000000" d="M567.4829,-75.7751C582.4096,-63.5624 603.8819,-45.9941 619.2237,-33.4417"/>
</g>
</g>
</svg>
